<svg xmlns="http://www.w3.org/2000/svg" width="8" height="16" fill="none"><rect id="backgroundrect" width="100%" height="100%" x="0" y="0" fill="none" stroke="none"/><defs><filter id="a" x="0.28999999165534973" y="0.7900000214576721" width="24.209999084472656" height="32.40999984741211" filterUnits="userSpaceOnUse" color-interpolation-filters="sRGB"><feFlood flood-opacity="0" result="BackgroundImageFix"/><feColorMatrix in="SourceAlpha" values="0 0 0 0 0 0 0 0 0 0 0 0 0 0 0 0 0 0 127 0" result="hardAlpha"/><feOffset dy="4"/><feGaussianBlur stdDeviation="4"/><feColorMatrix values="0 0 0 0 0.7625 0 0 0 0 0.7625 0 0 0 0 0.7625 0 0 0 0.2 0"/><feBlend in2="BackgroundImageFix" result="effect1_dropShadow_884_2844"/><feBlend in="SourceGraphic" in2="effect1_dropShadow_884_2844" result="shape"/></filter></defs><g class="currentLayer" style=""><title>Layer 1</title><g filter="url(#a)" id="svg_1" class=""><path d="m0.7100000381469727,8.199999809265137 l7,-7 v14 l-7,-7 z" fill="#fff" id="svg_2"/><path d="M7.710000038146973,1.1999998092651367 h0.5 V-1.9073486345888568e-7 l-0.8500000000000001,0.8500000000000001 L7.710000038146973,1.1999998092651367 zm-7,7 l-0.35000000000000003,-0.35000000000000003 l-0.36000000000000004,0.35000000000000003 l0.36000000000000004,0.35000000000000003 L0.7100000381469727,8.199999809265137 zm7,7 l-0.35000000000000003,0.35000000000000003 l0.8500000000000001,0.8600000000000001 V15.199999809265137 H7.710000038146973 zm-0.35000000000000003,-14.35 l-7,7 l0.7000000000000001,0.7000000000000001 l7,-7 l-0.7000000000000001,-0.7000000000000001 zm-7,7.7 l7,7 l0.7000000000000001,-0.7000000000000001 l-7,-7 l-0.7000000000000001,0.7000000000000001 zM8.210000038146973,15.199999809265137 V1.1999998092651367 h-1 v14 h1 z" fill="#B9B9B9" id="svg_3"/></g></g></svg>